<?xml version="1.0" encoding="utf-8"?>
<svg xmlns="http://www.w3.org/2000/svg" viewBox="0 0 50 50" fill="#000000"><path d="M 14 3 C 11.804688 3 10 4.804688 10 7 L 10 43 C 10 45.195313 11.804688 47 14 47 L 36 47 C 38.195313 47 40 45.195313 40 43 L 40 7 C 40 4.804688 38.195313 3 36 3 Z M 14 5 L 36 5 C 37.105469 5 38 5.894531 38 7 L 38 43 C 38 44.105469 37.105469 45 36 45 L 14 45 C 12.894531 45 12 44.105469 12 43 L 12 7 C 12 5.894531 12.894531 5 14 5 Z M 14.8125 7 C 14.335938 7.089844 13.992188 7.511719 14 8 L 14 20 C 14 20.550781 14.449219 21 15 21 L 35 21 C 35.550781 21 36 20.550781 36 20 L 36 8 C 36 7.449219 35.550781 7 35 7 L 15 7 C 14.96875 7 14.9375 7 14.90625 7 C 14.875 7 14.84375 7 14.8125 7 Z M 16 9 L 34 9 L 34 19 L 16 19 Z M 25 23 C 19.488281 23 15 27.488281 15 33 C 15 38.511719 19.488281 43 25 43 C 30.511719 43 35 38.511719 35 33 C 35 27.488281 30.511719 23 25 23 Z M 25 25 C 29.429688 25 33 28.570313 33 33 C 33 37.429688 29.429688 41 25 41 C 20.570313 41 17 37.429688 17 33 C 17 28.570313 20.570313 25 25 25 Z M 25 30 C 23.355469 30 22 31.355469 22 33 C 22 34.644531 23.355469 36 25 36 C 26.644531 36 28 34.644531 28 33 C 28 31.355469 26.644531 30 25 30 Z M 25 32 C 25.5625 32 26 32.4375 26 33 C 26 33.5625 25.5625 34 25 34 C 24.4375 34 24 33.5625 24 33 C 24 32.4375 24.4375 32 25 32 Z" fill="#000000"/></svg>
